<svg width="30"  viewBox="0 0 19 19" fill="none" xmlns="http://www.w3.org/2000/svg">
<path d="M5.07441 7.93927L7.39212 7.9086L7.56481 7.95379C8.03287 8.22333 8.47349 8.5316 8.88506 8.88023C9.18204 9.13201 9.4661 9.40639 9.73564 9.70337C10.5669 8.36536 11.4529 7.13711 12.3891 6.00731C13.4139 4.76937 14.5018 3.64603 15.6445 2.62114L15.8705 2.53398H18.3996L17.8896 3.10049C16.3224 4.842 14.9004 6.64161 13.6157 8.49771C12.331 10.3554 11.1818 12.2729 10.1601 14.2468L9.84217 14.8601L9.55003 14.2355C9.01096 13.0782 8.36536 12.0162 7.59548 11.0672C6.8256 10.1182 5.92983 9.27566 4.88557 8.55904L5.07441 7.93927Z" fill="#f7bf0d"/>
</svg>
