<svg xmlns="http://www.w3.org/2000/svg" width="617.9" height="109" viewBox="0 0 617.9 109">
  <g id="Group_63" data-name="Group 63" transform="translate(-9704 -6837)">
    <path id="Path_392" data-name="Path 392" d="M6.69,43.07q0,5.925,10.79,5.92H45.65c1.59,0,2.39.94,2.39,2.81s-.8,2.76-2.39,2.76H17.24Q.005,54.56,0,43.39V19.65Q0,8.175,17.82,8.17h7.76c1.53,0,2.29.95,2.29,2.86,0,1.8-.77,2.7-2.29,2.7H20.31q-13.62,0-13.62,5.92V43.07ZM45.65,28.78c1.53,0,2.29.94,2.29,2.83s-.77,2.73-2.29,2.73H12.11c-1.95,0-2.93-.91-2.93-2.73s.98-2.83,2.93-2.83H45.65Z" transform="translate(9704.03 6837)" fill="#00004d"/>
    <path id="Path_393" data-name="Path 393" d="M77.54,40.62,60.25,54.35a2.356,2.356,0,0,1-1.51.56,2.556,2.556,0,0,1-1.98-.99,3.256,3.256,0,0,1-.85-2.17,2.977,2.977,0,0,1,.22-1.12,2.271,2.271,0,0,1,.76-.97L73.05,36.85,56.89,24.15a2.842,2.842,0,0,1-1.27-2.19,3.069,3.069,0,0,1,.93-2.17,2.974,2.974,0,0,1,2.2-.94,3.08,3.08,0,0,1,1.86.71l37.65,30.1a2.624,2.624,0,0,1,1.03,2.04,3.106,3.106,0,0,1-.95,2.27,2.931,2.931,0,0,1-2.12.94,2.152,2.152,0,0,1-1.32-.56L77.57,40.62Zm9.62-7.65a3.965,3.965,0,0,1-2.34.82,3.008,3.008,0,0,1-2.15-.87,2.827,2.827,0,0,1-.88-2.09,2.921,2.921,0,0,1,1.32-2.19l11.52-9.18a2.77,2.77,0,0,1,1.76-.61,3.059,3.059,0,0,1,2.12.87,2.7,2.7,0,0,1,.95,2.04,3.019,3.019,0,0,1-.32,1.28,3.306,3.306,0,0,1-1.05,1.22L87.15,32.98Z" transform="translate(9704.03 6837)" fill="#00004d"/>
    <path id="Path_394" data-name="Path 394" d="M155.18,43.89q0,10.665-15.28,10.66H122.47c-1.5,0-2.25-.88-2.25-2.65s.75-2.65,2.25-2.65h18.46q8.1,0,8.11-5.31V29.35q0-4.905-9.83-4.9H125.52q-9.39,0-9.39,5.05V62.56q0,2.91-3.12,2.91c-2.08,0-3.03-.97-3.03-2.91V29.34q0-10.2,16.36-10.2h11.72q17.145,0,17.14,10.05V43.88Z" transform="translate(9704.03 6837)" fill="#00004d"/>
    <path id="Path_395" data-name="Path 395" d="M177.39,37.3c0-1.87.85-2.81,2.54-2.81h26.9V29.18c0-3.16-2.36-4.75-7.07-4.75H183.23q-9.51,0-9.51,5.05v14.9q0,4.845,9.52,4.85h6.79a2.294,2.294,0,0,1,2.59,2.6c0,1.73-.86,2.7-2.59,2.7h-5.18q-17.28,0-17.29-10.97V29.99q0-10.875,17.04-10.87h13.92q14.25,0,14.26,9.39v8.52c0,2.01-.9,3.01-2.69,3.01H179.91c-1.69,0-2.54-.92-2.54-2.76Z" transform="translate(9704.03 6837)" fill="#00004d"/>
    <path id="Path_396" data-name="Path 396" d="M236.28,24.45q-5.025,0-5.03,2.91V52q0,2.91-3.12,2.91T225.01,52V27.35q0-8.22,11.91-8.21h6.59c1.56,0,2.34.88,2.34,2.65s-.67,2.65-2,2.65h-7.57Z" transform="translate(9704.03 6837)" fill="#00004d"/>
    <path id="Path_397" data-name="Path 397" d="M261.33,24.45V52q0,2.91-3.03,2.91T255.27,52V10.72c0-1.9,1.03-2.86,3.08-2.86s2.98.95,2.98,2.86v8.42h12.35c1.69,0,2.54.88,2.54,2.65s-.85,2.65-2.54,2.65H261.33Z" transform="translate(9704.03 6837)" fill="#00004d"/>
    <path id="Path_398" data-name="Path 398" d="M299.61,54.55q-16.7,0-16.7-10.46V29.55q0-10.41,15.19-10.41h22.71c1.89,0,2.83.87,2.83,2.6s-.95,2.7-2.83,2.7H297.23q-8.16,0-8.15,4.9V43.78q0,5.46,9.38,5.46h22.36q2.64,0,2.64,2.76,0,2.55-2.64,2.55H299.63Z" transform="translate(9704.03 6837)" fill="#00004d"/>
    <path id="Path_399" data-name="Path 399" d="M372.17,29.55q0-5.1-8.69-5.1H349.37q-9.42,0-9.42,5.71v1.38q0,3.165-3.12,3.16c-2.08,0-3.03-1.05-3.03-3.16V30.16q0-11.025,16.5-11.02h12.26q15.915,0,15.92,10.97v1.43q0,3.165-3.17,3.16c-2.11,0-3.12-1.05-3.12-3.16V29.55Zm6.3,14.24q0,10.77-15.92,10.77H350.1q-16.3,0-16.31-10.77V42.21q0-3.27,3.03-3.27c2.02,0,3.12,1.09,3.12,3.27v1.58q0,5.46,9.47,5.46h14.11q8.64,0,8.64-5.46V42.21q0-3.27,3.12-3.27c2.08,0,3.17,1.09,3.17,3.27v1.58Z" transform="translate(9704.03 6837)" fill="#00004d"/>
    <path id="Path_400" data-name="Path 400" d="M412.26,53.43a3.092,3.092,0,0,1-2.39,1.48,2.83,2.83,0,0,1-2.25-1.38L384.67,22.87a2.675,2.675,0,0,1,.36-3.72,3.059,3.059,0,0,1,2.12-.87,2.644,2.644,0,0,1,1.17.28,3.033,3.033,0,0,1,1.03.84l20.61,28.16,20.56-28.27a2.116,2.116,0,0,1,1.86-.92,4.147,4.147,0,0,1,1.22.2,4.04,4.04,0,0,1,1.15.59,3.025,3.025,0,0,1,.83.92,2.242,2.242,0,0,1,.32,1.15,2.636,2.636,0,0,1-.59,1.63L412.26,53.42Z" transform="translate(9704.03 6837)" fill="#00004d"/>
    <path id="Path_401" data-name="Path 401" d="M451.46,37.3c0-1.87.85-2.81,2.54-2.81h26.9V29.18c0-3.16-2.36-4.75-7.07-4.75H457.3q-9.51,0-9.51,5.05v14.9q0,4.845,9.52,4.85h6.79a2.3,2.3,0,0,1,2.59,2.6c0,1.73-.86,2.7-2.59,2.7h-5.18q-17.28,0-17.29-10.97V29.99q0-10.875,17.04-10.87h13.92q14.25,0,14.26,9.39v8.52c0,2.01-.9,3.01-2.69,3.01H453.98c-1.69,0-2.54-.92-2.54-2.76Z" transform="translate(9704.03 6837)" fill="#00004d"/>
    <path id="Path_402" data-name="Path 402" d="M510.35,24.45q-5.025,0-5.03,2.91V52q0,2.91-3.12,2.91T499.08,52V27.35q0-8.22,11.91-8.21h6.59c1.56,0,2.34.88,2.34,2.65s-.67,2.65-2,2.65h-7.57Z" transform="translate(9704.03 6837)" fill="#00004d"/>
    <path id="Path_403" data-name="Path 403" d="M530.35,50.98q0,3.525-4.3,3.52c-2.87,0-4.25-1.17-4.25-3.52s1.42-3.37,4.25-3.37S530.35,48.73,530.35,50.98Z" transform="translate(9704.03 6837)" fill="#00004d"/>
    <path id="Path_406" data-name="Path 406" d="M7.86,0H71.48a7.86,7.86,0,0,1,7.86,7.86V61.23a7.86,7.86,0,0,1-7.86,7.86H7.86A7.86,7.86,0,0,1,0,61.23V7.86A7.86,7.86,0,0,1,7.86,0Z" transform="translate(10242.561 6837)" fill="#00004d"/>
    <path id="Path_404" data-name="Path 404" d="M553.86,52c0,1.94-1.03,2.91-3.08,2.91s-2.98-.97-2.98-2.91V21.49q0-2.7,2.88-2.7c2.12,0,3.17.9,3.17,2.7V52Z" transform="translate(9704.03 6837)" fill="#fff"/>
    <path id="Path_405" data-name="Path 405" d="M609.96,52c0,1.94-1.02,2.91-3.05,2.91s-3.1-.97-3.1-2.91V28.68q0-4.23-8.41-4.23H580q-8.565,0-8.56,4.29V52.01q0,2.91-3.03,2.91c-2.02,0-3.12-.97-3.12-2.91V28.83q0-9.69,16.36-9.69h11.96q16.35,0,16.36,9.59V52Z" transform="translate(9704.03 6837)" fill="#fff"/>
    <text id="Ensuring_every_state_of_mind" data-name="Ensuring every state of mind" transform="translate(9704 6939)" fill="#00004d" font-size="27" font-family="Segoe UI Variable Text" letter-spacing="0.19em"><tspan x="0" y="0">E</tspan><tspan y="0" letter-spacing="0.2em">nsuring </tspan><tspan y="0">ev</tspan><tspan y="0" letter-spacing="0.2em">er</tspan><tspan y="0" letter-spacing="0.18em">y </tspan><tspan y="0" letter-spacing="0.2em">s</tspan><tspan y="0">t</tspan><tspan y="0" letter-spacing="0.2em">a</tspan><tspan y="0">t</tspan><tspan y="0" letter-spacing="0.2em">e </tspan><tspan y="0">o</tspan><tspan y="0" letter-spacing="0.2em">f mind</tspan></text>
  </g>
</svg>
